<svg width="22" height="22" viewBox="0 0 22 22" fill="none" xmlns="http://www.w3.org/2000/svg">
<path d="M15.1436 6.23423C14.815 6.0445 14.3942 6.15723 14.2045 6.48587L9.80787 14.1013L7.348 11.8326C7.08813 11.5555 6.65363 11.5411 6.37655 11.8009C6.0995 12.0608 6.08505 12.4953 6.34495 12.773L9.48818 15.6722C9.74805 15.9493 10.1825 15.9637 10.4596 15.7039C10.5435 15.6255 15.3958 7.17405 15.3958 7.17405C15.585 6.84477 15.4722 6.424 15.1436 6.23423ZM11 0C4.92455 0 0 4.92455 0 11C0 17.0755 4.92455 22 11 22C17.0755 22 22 17.0755 22 11C22 4.92455 17.0755 0 11 0ZM11 20.625C5.68423 20.625 1.375 16.3158 1.375 11C1.375 5.68423 5.68423 1.375 11 1.375C16.3158 1.375 20.625 5.68423 20.625 11C20.625 16.3158 16.3158 20.625 11 20.625Z" fill="#3D3D3D"/>
</svg>
