<svg width="22" height="22" viewBox="0 0 22 22" fill="none" xmlns="http://www.w3.org/2000/svg">
<path d="M8.93753 8.93753C9.50677 8.93753 9.96878 8.47621 9.96878 7.90627C9.96878 7.33704 9.50677 6.87502 8.93753 6.87502C8.36825 6.87502 7.90627 7.33704 7.90627 7.90627C7.90624 8.47618 8.36825 8.93753 8.93753 8.93753ZM13.0625 8.93753C13.6318 8.93753 14.0938 8.47621 14.0938 7.90627C14.0938 7.33704 13.6317 6.87502 13.0625 6.87502C12.4933 6.87502 12.0313 7.33704 12.0313 7.90627C12.0313 8.47618 12.4933 8.93753 13.0625 8.93753ZM6.96849 15.6317C7.50336 15.7183 8.71817 15.8125 9.28124 15.8125C14.2175 15.8125 17.5313 12.1392 17.5313 7.82029C17.5313 3.50141 13.3904 0 9.28124 0C4.33814 0 0.34375 3.50145 0.34375 7.82029C0.34375 10.3221 1.29731 12.4465 3.09376 13.9762V17.875L6.96849 15.6317ZM1.71875 7.90624C1.71875 4.29893 4.98643 1.375 9.28124 1.375C12.7002 1.375 16.1562 4.29893 16.1562 7.90624C16.1562 11.5136 13.4578 14.4375 9.28124 14.4375C8.66732 14.4375 7.38649 14.3674 6.81519 14.2484L4.46876 15.8125V13.376C2.79194 12.0154 1.71875 10.1977 1.71875 7.90624ZM18.8712 6.28238C18.8842 6.4797 18.9062 6.67496 18.9062 6.87502C18.9062 7.31228 18.8643 7.74058 18.8024 8.16342C19.7278 9.24691 20.2812 10.5813 20.2812 12.0313C20.2812 14.3227 18.9118 16.3357 16.8438 17.501V19.9375L14.4973 18.3735C13.926 18.4924 13.3327 18.5625 12.7188 18.5625C10.9382 18.5625 9.99215 18.0277 8.69964 17.138C8.32497 17.1683 7.94615 17.1876 7.56252 17.1876C7.28891 17.1876 7.02076 17.1676 6.75125 17.1525C8.38751 18.753 10.0712 19.7657 12.7188 19.7657C13.2818 19.7657 13.8311 19.7148 14.3653 19.6275L18.2187 22V18.1005C20.3081 16.6691 21.6562 14.4472 21.6562 11.9446C21.6562 9.71439 20.5837 7.70757 18.8712 6.28238ZM4.81251 8.93753C5.38175 8.93753 5.84377 8.47621 5.84377 7.90627C5.84377 7.33704 5.38175 6.87502 4.81251 6.87502C4.24324 6.87502 3.78126 7.33704 3.78126 7.90627C3.78126 8.47618 4.24324 8.93753 4.81251 8.93753Z" fill="#3D3D3D"/>
</svg>
