<svg width="23" height="21" viewBox="0 0 23 21" fill="none" xmlns="http://www.w3.org/2000/svg">
<path d="M13.7502 6.24526C13.7502 6.0656 13.6046 5.91995 13.4249 5.91995H4.36535C4.18565 5.91995 4.04004 6.0656 4.04004 6.24526C4.04004 6.42492 4.18565 6.57057 4.36535 6.57057H13.4249C13.6046 6.57057 13.7502 6.42492 13.7502 6.24526Z" fill="black"/>
<path d="M11.8918 8.90945H4.36535C4.18565 8.90945 4.04004 9.05511 4.04004 9.23476C4.04004 9.41442 4.18565 9.56007 4.36535 9.56007H11.8917C12.0714 9.56007 12.2171 9.41442 12.2171 9.23476C12.2171 9.05511 12.0714 8.90945 11.8918 8.90945Z" fill="black"/>
<path d="M11.8918 11.8989H4.36535C4.18565 11.8989 4.04004 12.0446 4.04004 12.2242C4.04004 12.4039 4.18565 12.5495 4.36535 12.5495H11.8917C12.0714 12.5495 12.2171 12.4039 12.2171 12.2242C12.2171 12.0446 12.0714 11.8989 11.8918 11.8989Z" fill="black"/>
<path d="M22.7162 8.275C21.6222 7.39268 20.9947 6.08047 20.9947 4.67487V4.28923C20.9947 3.21198 20.391 2.27313 19.5042 1.79302V1.34604C19.5042 0.603818 18.9003 0 18.1581 0C17.4159 0 16.8121 0.603861 16.8121 1.34604V1.79302C15.9253 2.27313 15.3215 3.21197 15.3215 4.28927V4.67491C15.3215 6.08055 14.694 7.39272 13.6001 8.27496C13.3045 8.51317 13.2274 8.92888 13.4277 9.2564C13.5657 9.48203 13.806 9.61675 14.0705 9.61675H16.15C16.4295 10.4747 17.2348 11.073 18.1582 11.073C19.0816 11.073 19.8868 10.4747 20.1663 9.61675H22.2458C22.5103 9.61675 22.7506 9.48208 22.8885 9.25644C23.0892 8.92823 23.0111 8.51252 22.7162 8.275ZM17.4627 1.34604C17.4627 0.962569 17.7747 0.650576 18.1582 0.650576C18.5416 0.650576 18.8536 0.962569 18.8536 1.34604V1.53923C18.402 1.42499 17.9234 1.42269 17.4627 1.53923V1.34604ZM18.1582 10.4223C17.5944 10.4223 17.0945 10.1001 16.8517 9.61671H19.4646C19.2218 10.1001 18.7219 10.4223 18.1582 10.4223ZM22.2458 8.96609C21.3198 8.96609 15.5261 8.96609 14.0705 8.96609C13.9783 8.96609 13.9256 8.84833 14.0085 8.78145C15.2564 7.77503 15.9722 6.27821 15.9722 4.67487V4.28923C15.9722 3.08389 16.9528 2.10328 18.1581 2.10328C19.3635 2.10328 20.3441 3.08389 20.3441 4.28923V4.67487C20.3441 6.27821 21.0598 7.77503 22.3079 8.78153C22.3907 8.84824 22.338 8.96609 22.2458 8.96609Z" fill="black"/>
<mask id="path-5-inside-1_108_12" fill="white">
<path d="M20.1198 10.6272C19.9401 10.6272 19.7945 10.7728 19.7945 10.9525V13.7364C19.7945 14.813 18.9186 15.6889 17.8421 15.6889H7.97649C7.7028 15.6889 7.44273 15.7927 7.24425 15.9811L3.72358 19.3232L4.24208 16.4441C4.31304 16.0503 4.0102 15.6889 3.61076 15.6889H3.39523C2.31867 15.6889 1.44285 14.813 1.44285 13.7365V4.8453C1.44285 3.76875 2.31867 2.89293 3.39523 2.89293H14.7069C14.8866 2.89293 15.0322 2.74728 15.0322 2.56762C15.0322 2.38796 14.8866 2.24231 14.7069 2.24231H3.39523C1.95997 2.24231 0.792236 3.41 0.792236 4.8453V13.7364C0.792236 15.1717 1.95997 16.3395 3.39523 16.3395H3.59983L3.0406 19.4448C2.99666 19.6887 3.11373 19.9316 3.33177 20.0493C3.54886 20.1663 3.81627 20.1322 3.99688 19.9607L7.69217 16.4529C7.76925 16.3797 7.87023 16.3394 7.97654 16.3394H17.8421C19.2774 16.3394 20.4451 15.1717 20.4451 13.7364V10.9524C20.4451 10.7728 20.2994 10.6272 20.1198 10.6272Z"/>
</mask>
<path d="M20.1198 10.6272C19.9401 10.6272 19.7945 10.7728 19.7945 10.9525V13.7364C19.7945 14.813 18.9186 15.6889 17.8421 15.6889H7.97649C7.7028 15.6889 7.44273 15.7927 7.24425 15.9811L3.72358 19.3232L4.24208 16.4441C4.31304 16.0503 4.0102 15.6889 3.61076 15.6889H3.39523C2.31867 15.6889 1.44285 14.813 1.44285 13.7365V4.8453C1.44285 3.76875 2.31867 2.89293 3.39523 2.89293H14.7069C14.8866 2.89293 15.0322 2.74728 15.0322 2.56762C15.0322 2.38796 14.8866 2.24231 14.7069 2.24231H3.39523C1.95997 2.24231 0.792236 3.41 0.792236 4.8453V13.7364C0.792236 15.1717 1.95997 16.3395 3.39523 16.3395H3.59983L3.0406 19.4448C2.99666 19.6887 3.11373 19.9316 3.33177 20.0493C3.54886 20.1663 3.81627 20.1322 3.99688 19.9607L7.69217 16.4529C7.76925 16.3797 7.87023 16.3394 7.97654 16.3394H17.8421C19.2774 16.3394 20.4451 15.1717 20.4451 13.7364V10.9524C20.4451 10.7728 20.2994 10.6272 20.1198 10.6272Z" fill="black"/>
<path d="M7.24425 15.9811L10.6866 19.6074L10.6867 19.6073L7.24425 15.9811ZM3.72358 19.3232L-1.19726 18.437L-3.9021 33.4561L7.16595 22.9495L3.72358 19.3232ZM4.24208 16.4441L-0.678673 15.5574L-0.678762 15.5579L4.24208 16.4441ZM3.59983 16.3395L8.52067 17.2257L9.5807 11.3395H3.59983V16.3395ZM3.0406 19.4448L7.96139 20.3313L7.96144 20.331L3.0406 19.4448ZM3.33177 20.0493L0.957778 24.4497L0.958548 24.4501L3.33177 20.0493ZM3.99688 19.9607L0.554525 16.3344L0.554414 16.3345L3.99688 19.9607ZM7.69217 16.4529L11.1345 20.0792L11.1347 20.0791L7.69217 16.4529ZM20.4451 10.9524H25.4451L25.4451 10.9512L20.4451 10.9524ZM20.1198 5.62718C17.1782 5.62718 14.7945 8.01184 14.7945 10.9525H24.7945C24.7945 13.5338 22.7019 15.6272 20.1198 15.6272V5.62718ZM14.7945 10.9525V13.7364H24.7945V10.9525H14.7945ZM14.7945 13.7364C14.7945 12.0517 16.1571 10.6889 17.8421 10.6889V20.6889C21.6802 20.6889 24.7945 17.5743 24.7945 13.7364H14.7945ZM17.8421 10.6889H7.97649V20.6889H17.8421V10.6889ZM7.97649 10.6889C6.42164 10.6889 4.92937 11.2844 3.80183 12.3548L10.6867 19.6073C9.95608 20.3009 8.98396 20.6889 7.97649 20.6889V10.6889ZM3.80187 12.3548L0.281204 15.6969L7.16595 22.9495L10.6866 19.6074L3.80187 12.3548ZM8.64441 20.2094L9.16291 17.3303L-0.678762 15.5579L-1.19726 18.437L8.64441 20.2094ZM9.16282 17.3308C9.7872 13.8658 7.12221 10.6889 3.61076 10.6889V20.6889C0.898181 20.6889 -1.16113 18.2348 -0.678673 15.5574L9.16282 17.3308ZM3.61076 10.6889H3.39523V20.6889H3.61076V10.6889ZM3.39523 10.6889C5.08024 10.6889 6.44285 12.0518 6.44285 13.7365H-3.55715C-3.55715 17.5743 -0.442895 20.6889 3.39523 20.6889V10.6889ZM6.44285 13.7365V4.8453H-3.55715V13.7365H6.44285ZM6.44285 4.8453C6.44285 6.53017 5.0801 7.89293 3.39523 7.89293V-2.10707C-0.44275 -2.10707 -3.55715 1.00732 -3.55715 4.8453H6.44285ZM3.39523 7.89293H14.7069V-2.10707H3.39523V7.89293ZM14.7069 7.89293C17.6485 7.89293 20.0322 5.50827 20.0322 2.56762H10.0322C10.0322 -0.0137129 12.1248 -2.10707 14.7069 -2.10707V7.89293ZM20.0322 2.56762C20.0322 -0.373028 17.6485 -2.75769 14.7069 -2.75769V7.24231C12.1248 7.24231 10.0322 5.14895 10.0322 2.56762H20.0322ZM14.7069 -2.75769H3.39523V7.24231H14.7069V-2.75769ZM3.39523 -2.75769C-0.801404 -2.75769 -4.20776 0.648519 -4.20776 4.8453H5.79224C5.79224 6.17147 4.72134 7.24231 3.39523 7.24231V-2.75769ZM-4.20776 4.8453V13.7364H5.79224V4.8453H-4.20776ZM-4.20776 13.7364C-4.20776 17.9331 -0.801512 21.3395 3.39523 21.3395V11.3395C4.72144 11.3395 5.79224 12.4104 5.79224 13.7364H-4.20776ZM3.39523 21.3395H3.59983V11.3395H3.39523V21.3395ZM-1.32101 15.4533L-1.88024 18.5586L7.96144 20.331L8.52067 17.2257L-1.32101 15.4533ZM-1.88019 18.5583C-2.30746 20.93 -1.16264 23.3058 0.957778 24.4497L5.70577 15.6488C7.3901 16.5575 8.30079 18.4473 7.96139 20.3313L-1.88019 18.5583ZM0.958548 24.4501C3.06605 25.5866 5.68159 25.2556 7.43934 23.5869L0.554414 16.3345C1.95095 15.0087 4.03168 14.746 5.705 15.6484L0.958548 24.4501ZM7.43923 23.5871L11.1345 20.0792L4.24982 12.8266L0.554525 16.3344L7.43923 23.5871ZM11.1347 20.0791C10.2824 20.8882 9.15107 21.3394 7.97654 21.3394V11.3394C6.58938 11.3394 5.25607 11.8713 4.24966 12.8267L11.1347 20.0791ZM7.97654 21.3394H17.8421V11.3394H7.97654V21.3394ZM17.8421 21.3394C22.039 21.3394 25.4451 17.933 25.4451 13.7364H15.4451C15.4451 12.4104 16.5159 11.3394 17.8421 11.3394V21.3394ZM25.4451 13.7364V10.9524H15.4451V13.7364H25.4451ZM25.4451 10.9512C25.4444 8.01095 23.0607 5.62718 20.1198 5.62718V15.6272C17.5382 15.6272 15.4457 13.5347 15.4451 10.9536L25.4451 10.9512Z" fill="black" mask="url(#path-5-inside-1_108_12)"/>
</svg>
